<?xml version="1.0" standalone="no"?>
<!DOCTYPE svg PUBLIC "-//W3C//DTD SVG 20010904//EN"
 "http://www.w3.org/TR/2001/REC-SVG-20010904/DTD/svg10.dtd">
<svg version="1.0" xmlns="http://www.w3.org/2000/svg"
 width="500.000000pt" height="500.000000pt" viewBox="0 0 500.000000 500.000000"
 preserveAspectRatio="xMidYMid meet">
<metadata>
Created by potrace 1.11, written by Peter Selinger 2001-2013
</metadata>
<g transform="translate(0.000000,500.000000) scale(0.100000,-0.100000)"
fill="#000000" stroke="none">
<path d="M1585 4441 c-32 -6 -91 -36 -97 -48 -1 -5 -57 -53 -123 -108 -66 -55
-125 -104 -131 -110 -6 -5 -75 -64 -153 -130 -145 -121 -156 -134 -172 -188
-14 -48 -12 -629 2 -676 14 -47 50 -84 98 -100 23 -7 141 -11 352 -11 248 0
319 -3 320 -12 0 -7 2 -488 3 -1068 1 -779 5 -1062 14 -1080 17 -38 34 -55 72
-76 33 -17 64 -18 450 -18 365 0 419 2 446 16 25 14 312 248 528 431 27 23 58
48 68 55 20 14 47 62 54 95 3 12 5 390 6 840 l1 817 37 0 c54 0 99 18 155 63
28 23 55 45 60 51 6 6 46 40 90 76 44 35 85 69 91 75 18 16 90 75 199 165 55
45 111 101 125 123 l25 42 0 325 c0 316 -1 326 -23 371 -15 31 -34 51 -59 65
-37 18 -72 19 -1223 20 -652 0 -1198 -2 -1215 -5z m2413 -55 c61 -32 64 -54
64 -397 1 -268 -2 -310 -16 -341 -32 -66 -42 -68 -425 -68 l-341 0 -1 -22 c0
-13 0 -493 0 -1068 0 -732 -3 -1055 -11 -1080 -27 -85 -37 -86 -500 -85 -440
1 -439 0 -472 69 -19 38 -19 77 -20 1110 l-1 1071 -350 5 c-388 6 -388 6 -416
73 -19 44 -19 638 -1 682 14 34 43 55 86 64 16 4 556 6 1200 6 1103 -1 1173
-2 1204 -19z"/>
<path d="M1876 4012 c-2 -4 -1 -14 4 -21 7 -12 89 -14 442 -15 l433 -1 0
-1133 0 -1132 23 0 23 0 -1 178 c0 97 -1 607 0 1133 l0 956 438 0 437 0 1 21
1 22 -898 0 c-494 0 -900 -4 -903 -8z"/>
</g>
</svg>
